<svg xmlns="http://www.w3.org/2000/svg" xmlns:xlink="http://www.w3.org/1999/xlink" width="500" zoomAndPan="magnify" viewBox="0 0 375 374.999991" height="500" preserveAspectRatio="xMidYMid meet" version="1.0"><defs><clipPath id="41055b4f10"><path d="M 0 14.042969 L 375 14.042969 L 375 361.292969 L 0 361.292969 Z M 0 14.042969 " clip-rule="nonzero"/></clipPath><clipPath id="9b5071118e"><path d="M 176 127 L 375 127 L 375 361.292969 L 176 361.292969 Z M 176 127 " clip-rule="nonzero"/></clipPath></defs><g clip-path="url(#41055b4f10)"><path fill="#9fc7aa" d="M 366.042969 64.550781 L 12.707031 64.550781 L 12.707031 45.613281 C 12.707031 35.15625 21.183594 26.671875 31.636719 26.671875 L 347.113281 26.671875 C 357.566406 26.671875 366.042969 35.15625 366.042969 45.613281 Z M 347.113281 14.042969 L 31.636719 14.042969 C 14.234375 14.042969 0.0859375 28.199219 0.0859375 45.613281 L 0.0859375 279.214844 C 0.0859375 296.628906 14.234375 310.785156 31.636719 310.785156 L 132.589844 310.785156 L 132.589844 323.410156 C 132.589844 337.347656 121.277344 348.664062 107.351562 348.664062 L 94.730469 348.664062 L 94.730469 361.292969 L 164.136719 361.292969 L 164.136719 348.664062 L 135.496094 348.664062 C 141.511719 341.957031 145.207031 333.128906 145.207031 323.410156 L 145.207031 310.785156 L 164.136719 310.785156 L 164.136719 298.15625 L 31.636719 298.15625 C 21.183594 298.15625 12.707031 289.671875 12.707031 279.214844 L 12.707031 272.902344 L 164.136719 272.902344 L 164.136719 260.273438 L 12.707031 260.273438 L 12.707031 77.179688 L 366.042969 77.179688 L 366.042969 152.941406 L 378.664062 152.941406 L 378.664062 45.613281 C 378.664062 28.199219 364.515625 14.042969 347.113281 14.042969 " fill-opacity="1" fill-rule="nonzero"/></g><path fill="#9fc7aa" d="M 31.636719 51.925781 L 44.253906 51.925781 L 44.253906 39.296875 L 31.636719 39.296875 L 31.636719 51.925781 " fill-opacity="1" fill-rule="nonzero"/><path fill="#9fc7aa" d="M 56.875 51.925781 L 69.492188 51.925781 L 69.492188 39.296875 L 56.875 39.296875 L 56.875 51.925781 " fill-opacity="1" fill-rule="nonzero"/><path fill="#9fc7aa" d="M 82.113281 51.925781 L 94.730469 51.925781 L 94.730469 39.296875 L 82.113281 39.296875 L 82.113281 51.925781 " fill-opacity="1" fill-rule="nonzero"/><path fill="#9fc7aa" d="M 214.613281 165.570312 L 214.613281 152.941406 L 201.996094 152.941406 L 201.996094 165.570312 L 214.613281 165.570312 " fill-opacity="1" fill-rule="nonzero"/><path fill="#9fc7aa" d="M 239.851562 165.570312 L 239.851562 152.941406 L 227.234375 152.941406 L 227.234375 165.570312 L 239.851562 165.570312 " fill-opacity="1" fill-rule="nonzero"/><g clip-path="url(#9b5071118e)"><path fill="#9fc7aa" d="M 366.042969 266.589844 L 366.042969 323.410156 L 271.398438 323.410156 L 271.398438 203.453125 L 353.425781 203.453125 L 353.425781 190.824219 L 271.398438 190.824219 L 271.398438 184.511719 C 271.398438 181.035156 274.234375 178.199219 277.710938 178.199219 L 359.734375 178.199219 C 363.210938 178.199219 366.042969 181.035156 366.042969 184.511719 Z M 366.042969 342.351562 C 366.042969 345.828125 363.210938 348.664062 359.734375 348.664062 L 277.710938 348.664062 C 274.234375 348.664062 271.398438 345.828125 271.398438 342.351562 L 271.398438 336.039062 L 366.042969 336.039062 Z M 359.734375 165.570312 L 277.710938 165.570312 C 267.257812 165.570312 258.78125 174.054688 258.78125 184.511719 L 258.78125 342.351562 C 258.78125 344.570312 259.25 346.691406 259.9375 348.664062 L 195.683594 348.664062 C 192.210938 348.664062 189.375 345.828125 189.375 342.351562 L 189.375 323.410156 L 246.160156 323.410156 L 246.160156 310.785156 L 189.375 310.785156 L 189.375 184.511719 L 246.160156 184.511719 L 246.160156 171.882812 L 189.375 171.882812 L 189.375 146.628906 C 189.375 143.152344 192.210938 140.316406 195.683594 140.316406 L 309.257812 140.316406 C 312.734375 140.316406 315.566406 143.152344 315.566406 146.628906 L 315.566406 152.941406 L 328.1875 152.941406 L 328.1875 146.628906 C 328.1875 136.171875 319.707031 127.6875 309.257812 127.6875 L 195.683594 127.6875 C 185.234375 127.6875 176.753906 136.171875 176.753906 146.628906 L 176.753906 342.351562 C 176.753906 352.808594 185.234375 361.292969 195.683594 361.292969 L 359.734375 361.292969 C 370.183594 361.292969 378.664062 352.808594 378.664062 342.351562 L 378.664062 184.511719 C 378.664062 174.054688 370.183594 165.570312 359.734375 165.570312 " fill-opacity="1" fill-rule="nonzero"/></g></svg>